<?xml version="1.0" encoding="UTF-8"?>
<svg width="27px" height="29px" viewBox="0 0 27 29" version="1.1" xmlns="http://www.w3.org/2000/svg" xmlns:xlink="http://www.w3.org/1999/xlink">
    <!-- Generator: Sketch 50.2 (55047) - http://www.bohemiancoding.com/sketch -->
    <title>Fill 1</title>
    <desc>Created with Sketch.</desc>
    <defs></defs>
    <g id="Page-1" stroke="none" stroke-width="1" fill="none" fill-rule="evenodd">
        <g id="Artboard" transform="translate(-805.000000, -515.000000)" fill="#CECECE">
            <path d="M831.989504,530.474122 C831.989504,524.998396 827.534663,520.543631 822.059013,520.543631 L813.36458,520.543631 C813.251625,520.540794 813.138671,520.538646 813.025486,520.53811 L814.783912,518.811278 C815.208201,518.396268 815.445152,517.840083 815.451057,517.245327 C815.457038,516.651492 815.232126,516.09109 814.817422,515.667261 C814.402412,515.243049 813.846305,515.006021 813.251549,515.000116 C812.657636,514.994135 812.097004,515.21943 811.671565,515.635591 L805.661586,521.541358 C805.208464,521.987961 804.968829,522.61063 805.003259,523.251013 C805.00855,523.383598 805.027798,523.48367 805.040681,523.550461 C805.145507,524.094606 805.446106,524.57472 805.887572,524.902695 L812.844514,530.164015 C813.820232,530.894731 815.216482,530.699648 815.961154,529.723623 C816.691946,528.747904 816.497247,527.351961 815.523522,526.609052 L813.478301,525.067948 L814.37657,525.067948 C814.438147,525.074926 814.499877,525.08152 814.561223,525.089342 C814.560508,525.084588 817.059771,525.077456 822.059013,525.067948 C825.040001,525.067948 827.465188,527.493135 827.465188,530.474122 L827.465188,539.415169 C827.459283,540.067284 827.450695,540.809885 827.46189,541.293911 C827.500232,542.952188 828.784985,543.45431 829.685707,543.478926 C831.113934,543.517727 831.849021,542.588709 831.950396,541.366376 C832.004994,540.707513 832.008599,540.051564 831.989504,539.400523 L831.989504,530.474122 Z" id="Fill-1"></path>
        </g>
    </g>
</svg>